<svg xmlns="http://www.w3.org/2000/svg" width="69" height="56">
    <path fill="#FFF" fill-rule="evenodd" d="M66.496 3.035c-5.355 2.827-3.561 6.714-3.669 12.938-.067 3.898-1.182 8.259-3.025 11.329-1.491 2.485-3.609 4.922-7.685 5.24 10.373 7.005-1.502 13.478-1.629 16.08-.126 2.601 3.774 5.157 1.228 6.314-1.946.652-2.871-2.86-2.871-2.86-.338-.932-1.022-2.317-1.641-2.627-.919-.461-.99-.277-3.218-.331-5.92-.145-4.639-4.227-4.368-5.896.217-1.333-.65-2.325-.65-2.325-1.114-1.565-.419-1.799-.419-1.799.349-.189.789-.293.79-.464.001-.183-.919-.383-1.255-.723-.493-.498.181-1.795.181-1.795.889-2.128 1.106-2.717 1.018-3.016-.207-.698-.907-.48-2.269-1.286-1.651-.977-.333-2.199-.333-2.199l3.901-4.204c1.134-1.206.97-6.572.97-6.572-.248-4.961 2.314-8.901 3.837-10.665C52.24.242 62.805.311 67.622.004c1.436-.063 2.556 1.087-1.126 3.031zM32.945 31.814c-1.362.806-2.062.588-2.268 1.286-.089.299.128.888 1.017 3.016 0 0 .675 1.297.182 1.795-.337.34-1.256.54-1.255.723.001.171.441.275.79.464 0 0 .694.234-.42 1.799 0 0-.866.992-.649 2.325.271 1.669 1.552 5.751-4.369 5.896-2.228.054-2.298-.13-3.218.331-.619.31-1.303 1.695-1.641 2.627 0 0-.925 3.512-2.87 2.86-2.546-1.157 1.354-3.713 1.228-6.314-.127-2.602-12.003-9.075-1.63-16.08-4.076-.318-6.193-2.755-7.684-5.24-1.844-3.07-2.959-7.431-3.026-11.329C7.025 9.749 8.819 5.862 3.464 3.035-.219 1.091.902-.059 2.337.004c4.818.307 15.383.238 22.234 8.17 1.523 1.764 4.084 5.704 3.837 10.665 0 0-.165 5.366.969 6.572l3.902 4.204s1.317 1.222-.334 2.199z"/>
</svg>
