<svg xmlns="http://www.w3.org/2000/svg" width="51" height="41">
    <path fill="#6E2A83" fill-rule="evenodd" d="M14.195 36.218c-.094-1.938-8.919-6.76-1.211-11.978-3.029-.237-4.602-2.052-5.71-3.903-1.37-2.287-2.198-5.536-2.248-8.439-.08-4.636 1.253-7.531-2.727-9.637C-.437.813.396-.044 1.462.003c3.58.228 11.431.177 16.522 6.086 1.132 1.314 3.035 4.249 2.852 7.944 0 0-.122 3.997.72 4.896l2.899 3.131s.979.91-.247 1.638c-1.013.6-1.533.438-1.686.958-.066.223.095.661.756 2.247 0 0 .501.966.135 1.336-.25.254-.933.403-.933.539.001.127.328.204.587.346 0 0 .516.174-.311 1.34 0 0-.644.739-.483 1.732.201 1.242 1.153 4.284-3.246 4.391-1.656.041-1.709-.096-2.392.247-.46.231-.968 1.263-1.219 1.957 0 0-.687 2.616-2.133 2.13-1.892-.862 1.006-2.766.912-4.703z"/>
    <path fill="#13A0DB" fill-rule="evenodd" d="M37.244 36.218c.094-1.938 8.918-6.76 1.21-11.978 3.029-.237 4.603-2.052 5.711-3.903 1.37-2.287 2.198-5.536 2.248-8.439.08-4.636-1.253-7.531 2.726-9.637 2.737-1.448 1.904-2.305.837-2.258-3.58.228-11.431.177-16.522 6.086-1.132 1.314-3.035 4.249-2.851 7.944 0 0 .122 3.997-.72 4.896l-2.9 3.131s-.979.91.248 1.638c1.012.6 1.533.438 1.686.958.066.223-.095.661-.756 2.247 0 0-.501.966-.135 1.336.25.254.933.403.932.539 0 .127-.327.204-.586.346 0 0-.517.174.311 1.34 0 0 .644.739.483 1.732-.201 1.242-1.154 4.284 3.246 4.391 1.656.041 1.708-.096 2.392.247.459.231.968 1.263 1.219 1.957 0 0 .687 2.616 2.133 2.13 1.892-.862-1.006-2.766-.912-4.703z"/>
</svg>
